ply
format ascii 1.0
comment : MagicaVoxel @ Ephtracy
element vertex 16
property float x
property float y
property float z
property uchar red
property uchar green
property uchar blue
element face 12
property list uchar int vertex_index
end_header
0.005 0.105 0.105 255 255 255
0.095 0.105 0.105 255 255 255
0.005 0.195 0.105 255 255 255
0.095 0.195 0.105 255 255 255
0.005 0.105 0.195 255 255 255
0.095 0.105 0.195 255 255 255
0.005 0.195 0.195 255 255 255
0.095 0.195 0.195 255 255 255
0.005 0.005 0.105 0 0 0
0.095 0.005 0.105 0 0 0
0.005 0.095 0.105 0 0 0
0.095 0.095 0.105 0 0 0
0.005 0.005 0.195 0 0 0
0.095 0.005 0.195 0 0 0
0.005 0.095 0.195 0 0 0
0.095 0.095 0.195 0 0 0
4 0 4 6 2
4 1 3 7 5
4 0 1 5 4
4 2 6 7 3
4 0 2 3 1
4 4 5 7 6
4 8 12 14 10
4 9 11 15 13
4 8 9 13 12
4 10 14 15 11
4 8 10 11 9
4 12 13 15 14
