ply
format ascii 1.0
comment : MagicaVoxel @ Ephtracy
element vertex 160
property float x
property float y
property float z
property uchar red
property uchar green
property uchar blue
element face 120
property list uchar int vertex_index
end_header
0.205 0.205 0.305 153 153 255
0.295 0.205 0.305 153 153 255
0.205 0.295 0.305 153 153 255
0.295 0.295 0.305 153 153 255
0.205 0.205 0.395 153 153 255
0.295 0.205 0.395 153 153 255
0.205 0.295 0.395 153 153 255
0.295 0.295 0.395 153 153 255
0.105 0.205 0.305 153 153 255
0.195 0.205 0.305 153 153 255
0.105 0.295 0.305 153 153 255
0.195 0.295 0.305 153 153 255
0.105 0.205 0.395 153 153 255
0.195 0.205 0.395 153 153 255
0.105 0.295 0.395 153 153 255
0.195 0.295 0.395 153 153 255
0.005 0.205 0.305 153 153 255
0.095 0.205 0.305 153 153 255
0.005 0.295 0.305 153 153 255
0.095 0.295 0.305 153 153 255
0.005 0.205 0.395 153 153 255
0.095 0.205 0.395 153 153 255
0.005 0.295 0.395 153 153 255
0.095 0.295 0.395 153 153 255
0.205 0.105 0.305 153 153 255
0.295 0.105 0.305 153 153 255
0.205 0.195 0.305 153 153 255
0.295 0.195 0.305 153 153 255
0.205 0.105 0.395 153 153 255
0.295 0.105 0.395 153 153 255
0.205 0.195 0.395 153 153 255
0.295 0.195 0.395 153 153 255
0.005 0.005 0.105 153 153 255
0.095 0.005 0.105 153 153 255
0.005 0.095 0.105 153 153 255
0.095 0.095 0.105 153 153 255
0.005 0.005 0.195 153 153 255
0.095 0.005 0.195 153 153 255
0.005 0.095 0.195 153 153 255
0.095 0.095 0.195 153 153 255
0.005 0.105 0.305 153 153 255
0.095 0.105 0.305 153 153 255
0.005 0.195 0.305 153 153 255
0.095 0.195 0.305 153 153 255
0.005 0.105 0.395 153 153 255
0.095 0.105 0.395 153 153 255
0.005 0.195 0.395 153 153 255
0.095 0.195 0.395 153 153 255
0.205 0.005 0.305 153 153 255
0.295 0.005 0.305 153 153 255
0.205 0.095 0.305 153 153 255
0.295 0.095 0.305 153 153 255
0.205 0.005 0.395 153 153 255
0.295 0.005 0.395 153 153 255
0.205 0.095 0.395 153 153 255
0.295 0.095 0.395 153 153 255
0.105 0.005 0.105 153 153 255
0.195 0.005 0.105 153 153 255
0.105 0.095 0.105 153 153 255
0.195 0.095 0.105 153 153 255
0.105 0.005 0.195 153 153 255
0.195 0.005 0.195 153 153 255
0.105 0.095 0.195 153 153 255
0.195 0.095 0.195 153 153 255
0.005 0.005 0.305 153 153 255
0.095 0.005 0.305 153 153 255
0.005 0.095 0.305 153 153 255
0.095 0.095 0.305 153 153 255
0.005 0.005 0.395 153 153 255
0.095 0.005 0.395 153 153 255
0.005 0.095 0.395 153 153 255
0.095 0.095 0.395 153 153 255
0.205 0.205 0.205 153 153 255
0.295 0.205 0.205 153 153 255
0.205 0.295 0.205 153 153 255
0.295 0.295 0.205 153 153 255
0.205 0.205 0.295 153 153 255
0.295 0.205 0.295 153 153 255
0.205 0.295 0.295 153 153 255
0.295 0.295 0.295 153 153 255
0.205 0.005 0.105 153 153 255
0.295 0.005 0.105 153 153 255
0.205 0.095 0.105 153 153 255
0.295 0.095 0.105 153 153 255
0.205 0.005 0.195 153 153 255
0.295 0.005 0.195 153 153 255
0.205 0.095 0.195 153 153 255
0.295 0.095 0.195 153 153 255
0.005 0.205 0.205 153 153 255
0.095 0.205 0.205 153 153 255
0.005 0.295 0.205 153 153 255
0.095 0.295 0.205 153 153 255
0.005 0.205 0.295 153 153 255
0.095 0.205 0.295 153 153 255
0.005 0.295 0.295 153 153 255
0.095 0.295 0.295 153 153 255
0.005 0.105 0.105 153 153 255
0.095 0.105 0.105 153 153 255
0.005 0.195 0.105 153 153 255
0.095 0.195 0.105 153 153 255
0.005 0.105 0.195 153 153 255
0.095 0.105 0.195 153 153 255
0.005 0.195 0.195 153 153 255
0.095 0.195 0.195 153 153 255
0.205 0.105 0.105 153 153 255
0.295 0.105 0.105 153 153 255
0.205 0.195 0.105 153 153 255
0.295 0.195 0.105 153 153 255
0.205 0.105 0.195 153 153 255
0.295 0.105 0.195 153 153 255
0.205 0.195 0.195 153 153 255
0.295 0.195 0.195 153 153 255
0.005 0.205 0.105 153 153 255
0.095 0.205 0.105 153 153 255
0.005 0.295 0.105 153 153 255
0.095 0.295 0.105 153 153 255
0.005 0.205 0.195 153 153 255
0.095 0.205 0.195 153 153 255
0.005 0.295 0.195 153 153 255
0.095 0.295 0.195 153 153 255
0.205 0.005 0.205 153 153 255
0.295 0.005 0.205 153 153 255
0.205 0.095 0.205 153 153 255
0.295 0.095 0.205 153 153 255
0.205 0.005 0.295 153 153 255
0.295 0.005 0.295 153 153 255
0.205 0.095 0.295 153 153 255
0.295 0.095 0.295 153 153 255
0.105 0.005 0.305 153 153 255
0.195 0.005 0.305 153 153 255
0.105 0.095 0.305 153 153 255
0.195 0.095 0.305 153 153 255
0.105 0.005 0.395 153 153 255
0.195 0.005 0.395 153 153 255
0.105 0.095 0.395 153 153 255
0.195 0.095 0.395 153 153 255
0.005 0.005 0.205 153 153 255
0.095 0.005 0.205 153 153 255
0.005 0.095 0.205 153 153 255
0.095 0.095 0.205 153 153 255
0.005 0.005 0.295 153 153 255
0.095 0.005 0.295 153 153 255
0.005 0.095 0.295 153 153 255
0.095 0.095 0.295 153 153 255
0.205 0.205 0.105 153 153 255
0.295 0.205 0.105 153 153 255
0.205 0.295 0.105 153 153 255
0.295 0.295 0.105 153 153 255
0.205 0.205 0.195 153 153 255
0.295 0.205 0.195 153 153 255
0.205 0.295 0.195 153 153 255
0.295 0.295 0.195 153 153 255
0.105 0.205 0.105 153 153 255
0.195 0.205 0.105 153 153 255
0.105 0.295 0.105 153 153 255
0.195 0.295 0.105 153 153 255
0.105 0.205 0.195 153 153 255
0.195 0.205 0.195 153 153 255
0.105 0.295 0.195 153 153 255
0.195 0.295 0.195 153 153 255
4 0 4 6 2
4 1 3 7 5
4 0 1 5 4
4 2 6 7 3
4 0 2 3 1
4 4 5 7 6
4 8 12 14 10
4 9 11 15 13
4 8 9 13 12
4 10 14 15 11
4 8 10 11 9
4 12 13 15 14
4 16 20 22 18
4 17 19 23 21
4 16 17 21 20
4 18 22 23 19
4 16 18 19 17
4 20 21 23 22
4 24 28 30 26
4 25 27 31 29
4 24 25 29 28
4 26 30 31 27
4 24 26 27 25
4 28 29 31 30
4 32 36 38 34
4 33 35 39 37
4 32 33 37 36
4 34 38 39 35
4 32 34 35 33
4 36 37 39 38
4 40 44 46 42
4 41 43 47 45
4 40 41 45 44
4 42 46 47 43
4 40 42 43 41
4 44 45 47 46
4 48 52 54 50
4 49 51 55 53
4 48 49 53 52
4 50 54 55 51
4 48 50 51 49
4 52 53 55 54
4 56 60 62 58
4 57 59 63 61
4 56 57 61 60
4 58 62 63 59
4 56 58 59 57
4 60 61 63 62
4 64 68 70 66
4 65 67 71 69
4 64 65 69 68
4 66 70 71 67
4 64 66 67 65
4 68 69 71 70
4 72 76 78 74
4 73 75 79 77
4 72 73 77 76
4 74 78 79 75
4 72 74 75 73
4 76 77 79 78
4 80 84 86 82
4 81 83 87 85
4 80 81 85 84
4 82 86 87 83
4 80 82 83 81
4 84 85 87 86
4 88 92 94 90
4 89 91 95 93
4 88 89 93 92
4 90 94 95 91
4 88 90 91 89
4 92 93 95 94
4 96 100 102 98
4 97 99 103 101
4 96 97 101 100
4 98 102 103 99
4 96 98 99 97
4 100 101 103 102
4 104 108 110 106
4 105 107 111 109
4 104 105 109 108
4 106 110 111 107
4 104 106 107 105
4 108 109 111 110
4 112 116 118 114
4 113 115 119 117
4 112 113 117 116
4 114 118 119 115
4 112 114 115 113
4 116 117 119 118
4 120 124 126 122
4 121 123 127 125
4 120 121 125 124
4 122 126 127 123
4 120 122 123 121
4 124 125 127 126
4 128 132 134 130
4 129 131 135 133
4 128 129 133 132
4 130 134 135 131
4 128 130 131 129
4 132 133 135 134
4 136 140 142 138
4 137 139 143 141
4 136 137 141 140
4 138 142 143 139
4 136 138 139 137
4 140 141 143 142
4 144 148 150 146
4 145 147 151 149
4 144 145 149 148
4 146 150 151 147
4 144 146 147 145
4 148 149 151 150
4 152 156 158 154
4 153 155 159 157
4 152 153 157 156
4 154 158 159 155
4 152 154 155 153
4 156 157 159 158
